<svg xmlns="http://www.w3.org/2000/svg" width="633.41" height="103" viewBox="0 0 633.41 103">
  <path id="Path_135" data-name="Path 135" d="M-297.25-24.8c1.885,12.18,3.045,23.78,18.125,24.505V0h-36.1V-.29C-299.86-1.015-299.57-12.76-297.25-24.8Zm28.42-76.705h-39.585l.145.29c4.35,2.175,10.875,11.31,26.535,50.46L-261.435,0h13.05V-.145l2.465-27.115c-4.93-10.44-9.28-20.59-10.44-23.49-15.08-39.3-15.08-48.285-12.325-50.46Zm43.5,50.75c2.755,23.055,3.915,47.56-.58,50.605V0h39.585V-.145c-5.365-3.045-10.73-27.55-13.63-50.605-2.9-24.215-2.61-48.285.725-50.46v-.29h-22.185l-6.235,31.32ZM-85.4-101.5v34.075h-.29c-.145-2.61-1.305-6.09-2.03-8.555-3.335-10.295-10.3-23.345-21.9-25.23v-.29ZM-109.62,0V-.29c14.065-2.465,22.04-21.17,23.925-33.785h.29V0Zm-5.8-56.405v-.29c12.18,0,19.72-10.005,20.88-21.6h.29v43.5h-.29C-95.7-46.4-103.24-56.405-115.42-56.405Zm-9.28-45.1h-32.625v.29c3.625,2.175,7.25,24.795,7.1,50.46,0,14.935-2.03,47.56-7.1,50.605V0H-124.7Zm110.925,0H-53.36v.29c3.48,2.175,7.1,24.795,7.1,50.46,0,14.935-2.175,47.56-7.1,50.605V0h39.585V-.145C-18.85-3.19-20.88-35.815-20.88-50.75c0-25.665,3.48-48.285,7.105-50.46ZM33.205-24.8C35.09-12.615,36.25-1.015,51.33-.29V0H15.225V-.29C30.6-1.015,30.885-12.76,33.205-24.8ZM61.625-101.5H22.04l.145.29C26.535-99.035,33.06-89.9,48.72-50.75L69.02,0H82.07V-.145L84.535-27.26c-4.93-10.44-9.28-20.59-10.44-23.49-15.08-39.3-15.08-48.285-12.325-50.46Zm43.5,50.75c2.755,23.055,3.915,47.56-.58,50.605V0H144.13V-.145C138.765-3.19,133.4-27.7,130.5-50.75c-2.9-24.215-2.61-48.285.725-50.46v-.29H109.04l-6.235,31.32ZM245.05-101.5v34.075h-.29c-.145-2.61-1.305-6.09-2.03-8.555-3.335-10.295-10.3-23.345-21.9-25.23v-.29ZM220.835,0V-.29c14.065-2.465,22.04-21.17,23.925-33.785h.29V0Zm-5.8-56.405v-.29c12.18,0,19.72-10.005,20.88-21.6h.29v43.5h-.29C234.755-46.4,227.215-56.405,215.035-56.405Zm-9.28-45.1H173.13v.29c3.625,2.175,7.25,24.795,7.1,50.46,0,14.935-2.03,47.56-7.1,50.605V0h32.625Zm110.925,0H277.1v.29c3.48,2.175,7.105,24.795,7.105,50.46,0,14.935-2.175,47.56-7.105,50.605V0H316.68V-.145c-5.075-3.045-7.105-35.67-7.105-50.605,0-25.665,3.48-48.285,7.105-50.46Z" transform="translate(315.98 102.25)" fill="none" stroke="#fff" stroke-width="1.5" opacity="0.508"/>
</svg>
