<svg xmlns="http://www.w3.org/2000/svg" width="161.246" height="25.9" viewBox="0 0 161.246 25.9">
  <path id="Path_134" data-name="Path 134" d="M-75.85-6.327c.481,3.108.777,6.068,4.625,6.253V0h-9.213V-.074C-76.516-.259-76.442-3.256-75.85-6.327ZM-68.6-25.9H-78.7l.037.074c1.11.555,2.775,2.886,6.771,12.876L-66.711,0h3.33V-.037l.629-6.919C-64.01-9.62-65.12-12.21-65.416-12.95c-3.848-10.027-3.848-12.321-3.145-12.876Zm11.1,12.95c.7,5.883,1,12.136-.148,12.913V0h10.1V-.037c-1.369-.777-2.738-7.03-3.478-12.913-.74-6.179-.666-12.321.185-12.876V-25.9H-56.5l-1.591,7.992ZM-21.793-25.9v8.695h-.074a11.028,11.028,0,0,0-.518-2.183c-.851-2.627-2.627-5.957-5.587-6.438V-25.9ZM-27.972,0V-.074c3.589-.629,5.624-5.4,6.105-8.621h.074V0Zm-1.48-14.393v-.074c3.108,0,5.032-2.553,5.328-5.513h.074v11.1h-.074C-24.42-11.84-26.344-14.393-29.452-14.393ZM-31.82-25.9h-8.325v.074c.925.555,1.85,6.327,1.813,12.876,0,3.811-.518,12.136-1.813,12.913V0h8.325Zm28.305,0h-10.1v.074c.888.555,1.813,6.327,1.813,12.876,0,3.811-.555,12.136-1.813,12.913V0h10.1V-.037c-1.3-.777-1.813-9.1-1.813-12.913,0-6.549.888-12.321,1.813-12.876ZM8.473-6.327C8.954-3.219,9.25-.259,13.1-.074V0H3.885V-.074C7.807-.259,7.881-3.256,8.473-6.327ZM15.725-25.9H5.624l.037.074c1.11.555,2.775,2.886,6.771,12.876L17.612,0h3.33V-.037l.629-6.919C20.313-9.62,19.2-12.21,18.907-12.95c-3.848-10.027-3.848-12.321-3.145-12.876Zm11.1,12.95c.7,5.883,1,12.136-.148,12.913V0h10.1V-.037C35.409-.814,34.04-7.067,33.3-12.95c-.74-6.179-.666-12.321.185-12.876V-25.9H27.824l-1.591,7.992ZM62.53-25.9v8.695h-.074a11.028,11.028,0,0,0-.518-2.183c-.851-2.627-2.627-5.957-5.587-6.438V-25.9ZM56.351,0V-.074C59.94-.7,61.975-5.476,62.456-8.7h.074V0Zm-1.48-14.393v-.074c3.108,0,5.032-2.553,5.328-5.513h.074v11.1H60.2C59.9-11.84,57.979-14.393,54.871-14.393ZM52.5-25.9H44.178v.074c.925.555,1.85,6.327,1.813,12.876,0,3.811-.518,12.136-1.813,12.913V0H52.5Zm28.305,0h-10.1v.074c.888.555,1.813,6.327,1.813,12.876,0,3.811-.555,12.136-1.813,12.913V0h10.1V-.037C79.513-.814,79-9.139,79-12.95c0-6.549.888-12.321,1.813-12.876Z" transform="translate(80.438 25.9)" fill="#d68f1d"/>
</svg>
