<svg xmlns="http://www.w3.org/2000/svg" width="26.647" height="19.465" viewBox="0 0 26.647 19.465">
  <g id="メールの無料アイコンその6" transform="translate(0 -68.997)">
    <path id="Path_10" data-name="Path 10" d="M25.515,70.129A3.859,3.859,0,0,0,22.781,69H3.867A3.867,3.867,0,0,0,0,72.863V84.6a3.867,3.867,0,0,0,3.867,3.866H22.781A3.866,3.866,0,0,0,26.647,84.6V72.863A3.861,3.861,0,0,0,25.515,70.129Zm-21.648.848H22.781a1.862,1.862,0,0,1,1.182.427L13.324,79.431,2.685,71.4A1.861,1.861,0,0,1,3.867,70.977ZM1.98,84.6V72.863a1.876,1.876,0,0,1,.2-.835l7.381,6.766-7.4,6.6A1.878,1.878,0,0,1,1.98,84.6Zm20.8,1.886H3.867A1.862,1.862,0,0,1,2.741,86.1l7.839-6.34,1.188,1.13a2.3,2.3,0,0,0,3.113,0l1.188-1.13,7.839,6.34A1.862,1.862,0,0,1,22.781,86.482ZM24.668,84.6a1.877,1.877,0,0,1-.183.8l-7.4-6.6,7.38-6.766a1.869,1.869,0,0,1,.2.835V84.6Z" fill="#fff"/>
  </g>
</svg>
